<svg width="24" height="24" viewBox="0 0 24 24" fill="none" xmlns="http://www.w3.org/2000/svg">
<path d="M19.6233 5.59531C17.9224 3.89436 15.753 2.83236 13.4062 2.52852V1.40624C13.4062 0.630841 12.7753 0 11.9999 0C11.2245 0 10.5937 0.630841 10.5937 1.40624V2.52904C8.99111 2.73829 7.45765 3.3043 6.0964 4.19698C5.87993 4.33892 5.81951 4.62954 5.9615 4.84601C6.10343 5.06248 6.39401 5.12285 6.61053 4.98092C7.96019 4.09583 9.49553 3.56235 11.096 3.41619C11.1035 3.41567 11.111 3.41511 11.1184 3.41422C11.4104 3.38825 11.7044 3.37499 11.9999 3.37499C17.4277 3.37499 21.8436 7.79088 21.8436 13.2187C21.8436 18.6465 17.4277 23.0624 11.9999 23.0624C6.57209 23.0624 2.1562 18.6465 2.1562 13.2187C2.1562 11.2952 2.71157 9.43149 3.76232 7.82898C3.90425 7.61247 3.84383 7.32189 3.62737 7.17996C3.41085 7.03807 3.12032 7.09844 2.97834 7.31491C1.82719 9.07056 1.21875 11.112 1.21875 13.2187C1.21875 16.0985 2.34018 18.8058 4.37647 20.8422C6.41276 22.8785 9.12016 23.9999 11.9999 23.9999C14.8797 23.9999 17.5871 22.8785 19.6233 20.8422C21.6597 18.8059 22.7811 16.0985 22.7811 13.2187C22.7811 10.3389 21.6597 7.63164 19.6233 5.59531ZM11.5311 2.44808V1.40624C11.5311 1.14778 11.7414 0.937496 11.9999 0.937496C12.2583 0.937496 12.4686 1.14778 12.4686 1.40624V2.44818C12.3129 2.44157 12.1567 2.43758 11.9999 2.43758C11.8432 2.43758 11.687 2.44138 11.5311 2.44808Z" fill="#ABABAB"/>
<path d="M12 22.1251C16.9109 22.1251 20.9062 18.1298 20.9062 13.2188C20.9062 8.3079 16.9109 4.31262 12 4.31262C7.08908 4.31262 3.09375 8.30795 3.09375 13.2188C3.09375 18.1297 7.08908 22.1251 12 22.1251ZM12 5.25007C16.394 5.25007 19.9687 8.82484 19.9687 13.2188C19.9687 17.6127 16.3939 21.1875 12 21.1875C7.60601 21.1875 4.03125 17.6127 4.03125 13.2188C4.03129 8.82484 7.60606 5.25007 12 5.25007Z" fill="#ABABAB"/>
<path d="M6.44795 13.6876H10.3709L10.7804 14.3062C10.8151 14.3587 10.86 14.4037 10.9125 14.4384L11.5311 14.8479V18.7709C11.5311 19.0297 11.741 19.2396 11.9999 19.2396C12.2587 19.2396 12.4686 19.0297 12.4686 18.7709V15.4683L15.8137 17.6823C15.8928 17.7346 15.9828 17.7601 16.0723 17.7601C16.1933 17.7601 16.3134 17.7134 16.4039 17.6228C16.5615 17.4653 16.5864 17.2185 16.4634 17.0327L14.2494 13.6876H17.5519C17.8108 13.6876 18.0207 13.4778 18.0207 13.2189C18.0207 12.96 17.8108 12.7501 17.5519 12.7501H13.6289L13.2195 12.1315C13.1848 12.079 13.1398 12.0341 13.0873 11.9993L12.4687 11.5899V7.66687C12.4687 7.40798 12.2588 7.19812 12 7.19812C11.7411 7.19812 11.5312 7.40798 11.5312 7.66687V10.9694L8.18616 8.7554C8.0003 8.6324 7.75355 8.65724 7.59596 8.81483C7.43837 8.97243 7.41352 9.21917 7.53652 9.40499L9.75051 12.7501H6.448C6.18911 12.7501 5.97925 12.96 5.97925 13.2189C5.97925 13.4778 6.18906 13.6876 6.44795 13.6876ZM12.4903 12.7285L14.4101 15.629L11.5095 13.7093L9.58973 10.8087L12.4903 12.7285Z" fill="#ABABAB"/>
<path d="M4.70811 6.39549C4.82061 6.39549 4.93349 6.35522 5.0233 6.27357L5.02353 6.27333C5.21506 6.09919 5.22908 5.80284 5.05494 5.61126C4.88089 5.41973 4.58422 5.40567 4.39269 5.57986C4.20116 5.754 4.18701 6.05049 4.36115 6.24202C4.45368 6.34383 4.58066 6.39549 4.70811 6.39549Z" fill="#ABABAB"/>
</svg>
