<svg width="434" height="143" viewBox="0 0 434 143" fill="none" xmlns="http://www.w3.org/2000/svg">
<g filter="url(#filter0_f_5_94)">
<path d="M57.1562 20.2969C63.3438 20.2969 68.9375 21.2969 73.9375 23.2969C78.9688 25.2656 83.2656 28.0156 86.8281 31.5469C90.3906 35.0781 93.1406 39.2812 95.0781 44.1562C97.0156 49.0312 97.9844 54.3594 97.9844 60.1406C97.9844 63.8594 97.625 67.4531 96.9062 70.9219C96.1875 74.3906 95.1562 77.6562 93.8125 80.7188C92.4688 83.7812 90.8125 86.5781 88.8438 89.1094C86.9062 91.6406 84.7031 93.8281 82.2344 95.6719C79.7969 97.4844 77.1094 98.8906 74.1719 99.8906C71.2656 100.891 68.1562 101.391 64.8438 101.391C61.4688 101.391 58.0625 101.078 54.625 100.453C51.1875 99.8281 47.7812 99.1562 44.4062 98.4375C43.25 99.0938 42.0625 99.6562 40.8438 100.125C39.625 100.625 38.4062 101.031 37.1875 101.344C35.9688 101.688 34.7656 101.938 33.5781 102.094C32.4219 102.281 31.3281 102.375 30.2969 102.375C27.1719 102.375 24.7969 102.016 23.1719 101.297C21.5156 100.578 20.6875 99.5 20.6875 98.0625C20.6875 97.2188 20.9219 96.4688 21.3906 95.8125C21.8281 95.1562 22.5781 94.6094 23.6406 94.1719C24.7031 93.7031 26.0938 93.3594 27.8125 93.1406C29.5 92.8906 31.6094 92.7656 34.1406 92.7656C36.1094 92.7656 38.0469 92.875 39.9531 93.0938C41.8594 93.2812 43.75 93.5156 45.625 93.7969L46.8906 92.4844C47.5469 91.7031 48.0469 90.7188 48.3906 89.5312C48.7344 88.3125 48.9844 86.75 49.1406 84.8438C49.2969 82.9375 49.3906 80.6094 49.4219 77.8594C49.4531 75.0781 49.4688 71.7188 49.4688 67.7812C49.4688 63.9688 49.4844 60.7188 49.5156 58.0312C49.5781 55.3125 49.7031 52.9844 49.8906 51.0469C50.0781 49.1094 50.3594 47.4688 50.7344 46.125C51.1094 44.75 51.6094 43.5 52.2344 42.375C52.8906 41.2188 53.7031 40.0938 54.6719 39C55.6406 37.875 56.7969 36.5938 58.1406 35.1562L60.5312 37.2656C59.8438 37.9219 59.2969 38.7344 58.8906 39.7031C58.5156 40.6406 58.2344 41.7656 58.0469 43.0781C57.8594 44.3594 57.7344 45.8281 57.6719 47.4844C57.6406 49.1094 57.625 50.9531 57.625 53.0156V79.4062C57.625 81.4375 57.4062 83.2188 56.9688 84.75C56.5312 86.25 55.9375 87.5938 55.1875 88.7812C54.4688 89.9688 53.6406 91.0312 52.7031 91.9688C51.7656 92.9062 50.7969 93.7812 49.7969 94.5938C51.6406 94.9688 53.4375 95.3438 55.1875 95.7188C56.9375 96.0938 58.625 96.4375 60.25 96.75C61.9062 97.0625 63.4844 97.3281 64.9844 97.5469C66.5156 97.7344 67.9688 97.8281 69.3438 97.8281C71.9062 97.8281 74.1875 97.2656 76.1875 96.1406C78.1875 95.0156 79.9219 93.4844 81.3906 91.5469C82.8594 89.5781 84.0938 87.2812 85.0938 84.6562C86.125 82 86.9531 79.1562 87.5781 76.125C88.2031 73.0938 88.6406 69.9219 88.8906 66.6094C89.1719 63.2969 89.3125 60.0156 89.3125 56.7656C89.3125 51.6094 88.6562 46.9844 87.3438 42.8906C86.0312 38.7969 84.0781 35.3281 81.4844 32.4844C78.9219 29.6094 75.7188 27.4219 71.875 25.9219C68.0625 24.3906 63.6406 23.625 58.6094 23.625C54.9844 23.625 51.8281 23.9219 49.1406 24.5156C46.4531 25.0781 44.1406 25.8437 42.2031 26.8125C40.2969 27.75 38.7344 28.8281 37.5156 30.0469C36.2969 31.2656 35.3281 32.5312 34.6094 33.8438C33.9219 35.125 33.4375 36.4062 33.1562 37.6875C32.9062 38.9688 32.7812 40.1406 32.7812 41.2031C32.7812 42.4531 32.875 43.6875 33.0625 44.9062C33.2812 46.0938 33.6875 47.1562 34.2812 48.0938C34.9062 49.0312 35.7812 49.7812 36.9062 50.3438C38.0312 50.9062 39.5312 51.1875 41.4062 51.1875C42.0312 51.1875 42.5469 51.1562 42.9531 51.0938C43.3594 51 43.7031 50.8906 43.9844 50.7656C44.2969 50.6406 44.5625 50.5 44.7812 50.3438L45.3438 53.1094C44.875 53.4531 44.0781 53.75 42.9531 54C41.8594 54.25 40.6719 54.375 39.3906 54.375C37.5156 54.375 35.7656 54.0469 34.1406 53.3906C32.5469 52.7344 31.1562 51.8438 29.9688 50.7188C28.7812 49.5625 27.8594 48.2344 27.2031 46.7344C26.5156 45.2344 26.1719 43.6406 26.1719 41.9531C26.1719 39.0469 26.9375 36.2969 28.4688 33.7031C30 31.0781 32.1406 28.7812 34.8906 26.8125C37.6406 24.8125 40.9062 23.2344 44.6875 22.0781C48.5 20.8906 52.6562 20.2969 57.1562 20.2969ZM28.375 96.1406C27.875 96.1406 27.3438 96.1562 26.7812 96.1875C26.2188 96.2188 25.7031 96.2969 25.2344 96.4219C24.7344 96.5469 24.3281 96.7344 24.0156 96.9844C23.7031 97.2344 23.5469 97.5938 23.5469 98.0625C23.5469 98.6875 24.0625 99.1562 25.0938 99.4688C26.125 99.7812 27.8594 99.9375 30.2969 99.9375C32.1719 99.9375 33.9531 99.7344 35.6406 99.3281C37.3594 98.9219 38.9688 98.3281 40.4688 97.5469C38.4062 97.1719 36.3594 96.8438 34.3281 96.5625C32.2969 96.2812 30.3125 96.1406 28.375 96.1406ZM123.062 88.8281C122.906 89.0781 122.672 89.5156 122.359 90.1406C122.078 90.7344 121.703 91.4062 121.234 92.1562C120.797 92.9062 120.266 93.6875 119.641 94.5C119.047 95.3125 118.359 96.0469 117.578 96.7031C116.797 97.3594 115.922 97.9062 114.953 98.3438C114.016 98.7812 112.969 99 111.812 99C110.906 99 109.969 98.8125 109 98.4375C108.031 98.0625 107.125 97.375 106.281 96.375C105.469 95.375 104.797 94.0156 104.266 92.2969C103.734 90.5469 103.469 88.2969 103.469 85.5469C103.469 82.9219 103.562 80.2969 103.75 77.6719C103.938 75.0156 104.156 72.5938 104.406 70.4062C104.688 68.2188 104.953 66.3906 105.203 64.9219C105.453 63.4531 105.641 62.5625 105.766 62.25C105.891 61.9688 106.141 61.7188 106.516 61.5C106.891 61.2812 107.312 61.1094 107.781 60.9844C108.281 60.8594 108.781 60.7656 109.281 60.7031C109.812 60.6406 110.266 60.6094 110.641 60.6094C111.141 60.6094 111.531 60.7344 111.812 60.9844C112.125 61.2344 112.281 61.6562 112.281 62.25C112.281 62.5312 112.219 63.0938 112.094 63.9375C112 64.75 111.875 65.75 111.719 66.9375C111.562 68.125 111.391 69.4375 111.203 70.875C111.047 72.3125 110.891 73.7812 110.734 75.2812C110.578 76.75 110.438 78.2188 110.312 79.6875C110.219 81.125 110.172 82.4375 110.172 83.625C110.172 87.0312 110.531 89.5625 111.25 91.2188C112 92.875 113.219 93.7031 114.906 93.7031C116.344 93.7031 117.797 92.6562 119.266 90.5625C120.766 88.4688 122.062 85.4219 123.156 81.4219C123.312 79.7344 123.453 77.9375 123.578 76.0312C123.734 74.0938 123.875 72.2656 124 70.5469C124.125 68.7969 124.234 67.2344 124.328 65.8594C124.453 64.4844 124.562 63.5 124.656 62.9062C124.75 62.4688 125 62.1094 125.406 61.8281C125.812 61.5156 126.266 61.2812 126.766 61.125C127.297 60.9375 127.797 60.8125 128.266 60.75C128.766 60.6562 129.141 60.6094 129.391 60.6094C129.922 60.6094 130.281 60.7344 130.469 60.9844C130.688 61.2031 130.797 61.5625 130.797 62.0625C130.797 62.5 130.75 63.3438 130.656 64.5938C130.594 65.8125 130.5 67.25 130.375 68.9062C130.281 70.5312 130.172 72.2812 130.047 74.1562C129.922 76.0312 129.797 77.8438 129.672 79.5938C129.578 81.3125 129.484 82.875 129.391 84.2812C129.328 85.6875 129.297 86.75 129.297 87.4688C129.297 89.5938 129.406 91.2656 129.625 92.4844C129.875 93.7031 130.406 94.3125 131.219 94.3125C131.812 94.3125 132.453 93.9375 133.141 93.1875C133.859 92.4062 134.625 91.3281 135.438 89.9531C136.281 88.5781 137.188 86.9531 138.156 85.0781C139.125 83.1719 140.172 81.0938 141.297 78.8438L141.766 77.8594L143.688 79.3125L143.219 80.2969C141.719 83.2656 140.391 85.9219 139.234 88.2656C138.109 90.5781 137.031 92.5312 136 94.125C134.969 95.7188 133.922 96.9375 132.859 97.7812C131.797 98.5938 130.609 99 129.297 99C128.078 99 127.062 98.7656 126.25 98.2969C125.469 97.8281 124.844 97.1562 124.375 96.2812C123.906 95.4062 123.562 94.3438 123.344 93.0938C123.156 91.8438 123.062 90.4219 123.062 88.8281ZM157.094 63.9375C156.188 63.9375 155.312 64.2656 154.469 64.9219C153.656 65.5469 152.875 66.4219 152.125 67.5469C151.375 68.6406 150.641 69.9375 149.922 71.4375C149.234 72.9062 148.547 74.4844 147.859 76.1719V76.7344C147.766 79.4844 147.672 82.4062 147.578 85.5C147.516 88.5938 147.484 91.9688 147.484 95.625C147.484 96.25 147.266 96.7812 146.828 97.2188C146.422 97.625 145.938 97.9688 145.375 98.25C144.812 98.5 144.234 98.6875 143.641 98.8125C143.047 98.9375 142.562 99 142.188 99C141.719 99 141.281 98.8594 140.875 98.5781C140.469 98.2969 140.266 97.6719 140.266 96.7031C140.266 96.2344 140.312 95.6562 140.406 94.9688C140.5 94.25 140.625 93.4844 140.781 92.6719C140.906 91.8594 141.062 91.0312 141.25 90.1875C141.406 89.3125 141.562 88.5 141.719 87.75C141.719 85.0938 141.719 82.7031 141.719 80.5781C141.688 78.4531 141.672 76.5625 141.672 74.9062C141.672 73.25 141.672 71.7969 141.672 70.5469C141.641 69.2969 141.625 68.2188 141.625 67.3125C141.625 65.8125 141.656 64.7188 141.719 64.0312C141.75 63.3125 141.812 62.8125 141.906 62.5312C142.062 62.0938 142.344 61.75 142.75 61.5C143.188 61.25 143.641 61.0625 144.109 60.9375C144.578 60.7812 145.047 60.6875 145.516 60.6562C145.984 60.625 146.344 60.6094 146.594 60.6094C147.188 60.6094 147.578 60.7812 147.766 61.125C147.953 61.4688 148.047 62 148.047 62.7188C148.047 64.3438 148.047 65.8125 148.047 67.125C148.047 68.4375 148.016 69.75 147.953 71.0625C148.547 69.6562 149.234 68.3281 150.016 67.0781C150.828 65.7969 151.719 64.6875 152.688 63.75C153.656 62.7812 154.672 62.0156 155.734 61.4531C156.828 60.8906 157.953 60.6094 159.109 60.6094C160.516 60.6094 161.672 60.9062 162.578 61.5C163.516 62.0625 164.25 62.8594 164.781 63.8906C165.344 64.9219 165.75 66.1406 166 67.5469C166.281 68.9219 166.469 70.4219 166.562 72.0469C167.438 70.4531 168.375 68.9688 169.375 67.5938C170.406 66.1875 171.484 64.9688 172.609 63.9375C173.766 62.9062 174.969 62.0938 176.219 61.5C177.5 60.9062 178.828 60.6094 180.203 60.6094C182.578 60.6094 184.312 61.3594 185.406 62.8594C186.5 64.3281 187.047 66.3281 187.047 68.8594C187.047 70.4531 186.922 72.2344 186.672 74.2031C186.422 76.1719 186.156 78.1719 185.875 80.2031C185.594 82.2031 185.328 84.1719 185.078 86.1094C184.828 88.0469 184.703 89.8125 184.703 91.4062C184.703 93.3438 185.188 94.3125 186.156 94.3125C186.656 94.3125 187.203 94.0156 187.797 93.4219C188.391 92.7969 189.062 91.8594 189.812 90.6094C190.594 89.3281 191.484 87.7188 192.484 85.7812C193.516 83.8438 194.703 81.5312 196.047 78.8438L196.516 77.8594L198.438 79.3125L197.969 80.2969C196.125 83.9844 194.547 87.0312 193.234 89.4375C191.953 91.8438 190.797 93.7656 189.766 95.2031C188.734 96.6094 187.75 97.5938 186.812 98.1562C185.906 98.7188 184.891 99 183.766 99C183.109 99 182.469 98.9062 181.844 98.7188C181.219 98.5312 180.672 98.2031 180.203 97.7344C179.734 97.2656 179.359 96.6406 179.078 95.8594C178.797 95.0469 178.656 94.0156 178.656 92.7656C178.656 90.8906 178.781 88.7812 179.031 86.4375C179.281 84.0938 179.562 81.75 179.875 79.4062C180.188 77.0625 180.469 74.8594 180.719 72.7969C180.969 70.7031 181.094 69 181.094 67.6875C181.094 66.5312 180.844 65.6094 180.344 64.9219C179.844 64.2031 179.094 63.8438 178.094 63.8438C177.094 63.8438 176.047 64.2344 174.953 65.0156C173.891 65.7969 172.844 66.8125 171.812 68.0625C170.812 69.2812 169.859 70.6562 168.953 72.1875C168.078 73.7188 167.312 75.2344 166.656 76.7344C166.656 80.0156 166.625 82.8906 166.562 85.3594C166.5 87.7969 166.406 89.8594 166.281 91.5469C166.188 93.2344 166.047 94.5781 165.859 95.5781C165.672 96.5469 165.469 97.2031 165.25 97.5469C165.094 97.7656 164.828 97.9688 164.453 98.1562C164.078 98.3438 163.656 98.5 163.188 98.625C162.75 98.75 162.312 98.8438 161.875 98.9062C161.469 98.9688 161.156 99 160.938 99C160.438 99 160 98.8594 159.625 98.5781C159.281 98.2656 159.109 97.6719 159.109 96.7969C159.109 96.3906 159.141 95.8438 159.203 95.1562C159.297 94.4688 159.406 93.7031 159.531 92.8594C159.656 92.0156 159.797 91.1094 159.953 90.1406C160.109 89.1719 160.266 88.1875 160.422 87.1875C160.453 86.25 160.484 85.2031 160.516 84.0469C160.547 82.8906 160.578 81.75 160.609 80.625C160.641 79.4688 160.656 78.375 160.656 77.3438C160.688 76.2812 160.703 75.375 160.703 74.625C160.703 73.0312 160.656 71.5781 160.562 70.2656C160.469 68.9531 160.281 67.8281 160 66.8906C159.75 65.9531 159.391 65.2344 158.922 64.7344C158.453 64.2031 157.844 63.9375 157.094 63.9375ZM202.703 74.0625C202.734 77.6562 202.969 80.8594 203.406 83.6719C203.844 86.4531 204.453 88.8125 205.234 90.75C206.016 92.6562 206.969 94.1094 208.094 95.1094C209.219 96.1094 210.5 96.6094 211.938 96.6094C213.906 96.6094 215.531 95.8281 216.812 94.2656C218.125 92.6719 219.094 90.5 219.719 87.75C218.094 87.4062 216.547 86.7656 215.078 85.8281C213.609 84.8906 212.312 83.7344 211.188 82.3594C210.062 80.9531 209.156 79.3438 208.469 77.5312C207.812 75.7188 207.484 73.75 207.484 71.625C207.484 69.875 207.703 68.3438 208.141 67.0312C208.609 65.6875 209.219 64.5781 209.969 63.7031C210.719 62.7969 211.578 62.125 212.547 61.6875C213.547 61.2188 214.594 60.9844 215.688 60.9844C216.969 60.9844 218.281 61.3594 219.625 62.1094C220.969 62.8281 222.188 63.9219 223.281 65.3906C224.375 66.8281 225.266 68.6406 225.953 70.8281C226.641 73.0156 226.984 75.5625 226.984 78.4688C226.984 79.5625 226.922 80.6406 226.797 81.7031C226.672 82.7656 226.484 83.7969 226.234 84.7969C227.734 84.3594 229.094 83.6562 230.312 82.6875C231.562 81.7188 232.594 80.4375 233.406 78.8438L233.922 77.8594L235.844 79.3125L235.328 80.2969C234.266 82.4219 232.844 84.125 231.062 85.4062C229.312 86.6562 227.406 87.4688 225.344 87.8438C224.781 89.4375 224.047 90.9219 223.141 92.2969C222.266 93.6406 221.25 94.8125 220.094 95.8125C218.969 96.8125 217.688 97.5938 216.25 98.1562C214.844 98.7188 213.312 99 211.656 99C209.312 99 207.156 98.5 205.188 97.5C203.25 96.5 201.562 94.875 200.125 92.625C198.719 90.375 197.609 87.4219 196.797 83.7656C196.016 80.0781 195.625 75.5625 195.625 70.2188C195.625 62.7812 195.969 56.4531 196.656 51.2344C197.344 45.9844 198.25 41.7188 199.375 38.4375C200.5 35.125 201.797 32.7188 203.266 31.2188C204.734 29.6875 206.25 28.9219 207.812 28.9219C208.781 28.9219 209.578 29.3125 210.203 30.0938C210.828 30.8438 211.141 32.2188 211.141 34.2188C211.141 35.7812 211.016 37.5625 210.766 39.5625C210.516 41.5625 210.188 43.7031 209.781 45.9844C209.375 48.2656 208.891 50.6406 208.328 53.1094C207.766 55.5469 207.172 57.9844 206.547 60.4219C205.922 62.8281 205.281 65.2031 204.625 67.5469C203.969 69.8594 203.328 72.0312 202.703 74.0625ZM210.578 71.25C210.578 73.0938 210.828 74.7969 211.328 76.3594C211.859 77.8906 212.562 79.25 213.438 80.4375C214.312 81.5938 215.328 82.5625 216.484 83.3438C217.641 84.125 218.875 84.6719 220.188 84.9844C220.344 84.1094 220.438 83.2031 220.469 82.2656C220.531 81.2969 220.562 80.3125 220.562 79.3125C220.562 77.0938 220.391 75.0938 220.047 73.3125C219.703 71.5 219.25 69.9688 218.688 68.7188C218.125 67.4375 217.469 66.4531 216.719 65.7656C215.969 65.0781 215.203 64.7344 214.422 64.7344C213.359 64.7344 212.453 65.3125 211.703 66.4688C210.953 67.5938 210.578 69.1875 210.578 71.25ZM208.094 35.3438C208.094 34.6875 208.016 34.1719 207.859 33.7969C207.703 33.4219 207.453 33.2344 207.109 33.2344C206.766 33.2344 206.422 33.7188 206.078 34.6875C205.734 35.6562 205.391 36.9688 205.047 38.625C204.734 40.2812 204.438 42.2031 204.156 44.3906C203.906 46.5781 203.672 48.9062 203.453 51.375C203.234 53.8125 203.062 56.3125 202.938 58.875C202.812 61.4375 202.734 63.9062 202.703 66.2812C203.453 63.5312 204.156 60.7188 204.812 57.8438C205.469 54.9375 206.031 52.125 206.5 49.4062C207 46.6875 207.391 44.125 207.672 41.7188C207.953 39.2812 208.094 37.1562 208.094 35.3438ZM288.672 80.2969C288.016 81.5781 287.25 82.7969 286.375 83.9531C285.531 85.0781 284.641 86.125 283.703 87.0938C282.766 88.0312 281.828 88.9062 280.891 89.7188C279.953 90.5 279.094 91.1875 278.312 91.7812V97.1719C278.312 101.266 277.984 104.906 277.328 108.094C276.703 111.281 275.781 113.984 274.562 116.203C273.375 118.422 271.938 120.109 270.25 121.266C268.594 122.422 266.734 123 264.672 123C263.547 123 262.516 122.766 261.578 122.297C260.641 121.859 259.828 121.25 259.141 120.469C258.484 119.688 257.969 118.766 257.594 117.703C257.219 116.672 257.031 115.562 257.031 114.375C257.031 112.094 257.406 109.984 258.156 108.047C258.938 106.141 259.984 104.328 261.297 102.609C262.609 100.922 264.125 99.3125 265.844 97.7812C267.562 96.2188 269.391 94.6719 271.328 93.1406C271.359 91.4219 271.406 89.7188 271.469 88.0312C271.562 86.3438 271.641 84.75 271.703 83.25C271.797 81.75 271.875 80.3906 271.938 79.1719C272.031 77.9531 272.109 76.9531 272.172 76.1719C271.109 78.3281 269.906 80.4531 268.562 82.5469C267.25 84.6094 265.844 86.5781 264.344 88.4531C262.844 90.3281 261.266 92.0625 259.609 93.6562C257.984 95.2188 256.344 96.5781 254.688 97.7344C253.031 98.8906 251.375 99.7812 249.719 100.406C248.094 101.062 246.531 101.391 245.031 101.391C243.344 101.391 241.734 101.047 240.203 100.359C238.703 99.7031 237.375 98.6562 236.219 97.2188C235.094 95.7812 234.203 93.9375 233.547 91.6875C232.859 89.4375 232.516 86.75 232.516 83.625C232.516 80.125 232.906 76.5312 233.688 72.8438C234.469 69.1562 235.547 65.5 236.922 61.875C238.297 58.25 239.938 54.7031 241.844 51.2344C243.75 47.7656 245.828 44.5 248.078 41.4375C250.328 38.3438 252.719 35.5156 255.25 32.9531C257.781 30.3594 260.359 28.125 262.984 26.25C265.609 24.375 268.234 22.9219 270.859 21.8906C273.516 20.8281 276.094 20.2969 278.594 20.2969C281.219 20.2969 283.312 20.9687 284.875 22.3125C286.469 23.625 287.266 25.5 287.266 27.9375C287.266 29.25 286.984 30.5312 286.422 31.7812C285.891 33 285.156 34.1875 284.219 35.3438C283.312 36.4688 282.281 37.5469 281.125 38.5781C279.969 39.5781 278.781 40.5 277.562 41.3438C276.375 42.1875 275.188 42.9375 274 43.5938C272.844 44.25 271.812 44.7969 270.906 45.2344L269.5 43.3125C270.688 42.7188 271.984 41.875 273.391 40.7812C274.797 39.6875 276.109 38.4531 277.328 37.0781C278.547 35.7031 279.562 34.2188 280.375 32.625C281.188 31.0312 281.594 29.4375 281.594 27.8438C281.594 26.5 281.234 25.3906 280.516 24.5156C279.828 23.6094 278.719 23.1562 277.188 23.1562C274.812 23.1562 272.266 23.8906 269.547 25.3594C266.859 26.8281 264.172 28.875 261.484 31.5C258.828 34.125 256.281 37.2656 253.844 40.9219C251.406 44.5469 249.25 48.5312 247.375 52.875C245.5 57.2188 244 61.8281 242.875 66.7031C241.75 71.5781 241.188 76.5781 241.188 81.7031C241.188 83.9531 241.344 85.9688 241.656 87.75C242 89.5312 242.469 91.0469 243.062 92.2969C243.688 93.5156 244.438 94.4688 245.312 95.1562C246.219 95.8125 247.234 96.1406 248.359 96.1406C249.734 96.1406 251.234 95.7188 252.859 94.875C254.484 94.0312 256.109 92.8906 257.734 91.4531C259.391 90.0156 261.016 88.3594 262.609 86.4844C264.203 84.5781 265.672 82.5781 267.016 80.4844C268.359 78.3906 269.531 76.2656 270.531 74.1094C271.531 71.9531 272.266 69.9062 272.734 67.9688C272.922 65.6875 273.109 63.6094 273.297 61.7344C273.484 59.8281 273.656 58.1562 273.812 56.7188C274 55.2812 274.172 54.125 274.328 53.25C274.484 52.3438 274.625 51.75 274.75 51.4688C275 51 275.359 50.5312 275.828 50.0625C276.297 49.5938 276.797 49.1875 277.328 48.8438C277.891 48.4688 278.438 48.1719 278.969 47.9531C279.5 47.7344 279.953 47.625 280.328 47.625C280.828 47.625 281.156 47.8281 281.312 48.2344C281.5 48.6406 281.594 49.0781 281.594 49.5469C281.594 50.9219 281.359 52.75 280.891 55.0312C280.422 57.3125 279.828 59.9688 279.109 63C278.797 64.3125 278.562 66.0469 278.406 68.2031C278.281 70.3281 278.188 72.6094 278.125 75.0469C278.094 77.4531 278.078 79.8906 278.078 82.3594C278.078 84.7969 278.062 86.9844 278.031 88.9219C280.344 87.2344 282.188 85.5 283.562 83.7188C284.969 81.9062 286.031 80.2812 286.75 78.8438L287.266 77.8594L289.188 79.3125L288.672 80.2969ZM271.234 96.6094C269.766 97.7656 268.422 98.9844 267.203 100.266C265.984 101.547 264.938 102.922 264.062 104.391C263.219 105.859 262.547 107.453 262.047 109.172C261.578 110.922 261.344 112.812 261.344 114.844C261.344 116.781 261.656 118.219 262.281 119.156C262.906 120.125 263.703 120.609 264.672 120.609C265.641 120.609 266.516 120.188 267.297 119.344C268.109 118.531 268.797 117.172 269.359 115.266C269.953 113.391 270.406 110.922 270.719 107.859C271.062 104.797 271.234 101.047 271.234 96.6094ZM286.844 78.8438L287.312 77.8594C287.781 76.9219 288.203 75.9531 288.578 74.9531C288.984 73.9531 289.328 73.0156 289.609 72.1406C289.891 71.2344 290.109 70.4375 290.266 69.75C290.422 69.0312 290.531 68.4844 290.594 68.1094C289.781 68.0156 289 67.8125 288.25 67.5C287.5 67.1875 286.844 66.7656 286.281 66.2344C285.719 65.7031 285.281 65.0781 284.969 64.3594C284.625 63.6406 284.453 62.8281 284.453 61.9219C284.453 61.2031 284.578 60.5625 284.828 60C285.078 59.4375 285.422 58.9688 285.859 58.5938C286.266 58.2188 286.734 57.9375 287.266 57.75C287.766 57.5312 288.297 57.4219 288.859 57.4219C289.609 57.4219 290.266 57.5781 290.828 57.8906C291.391 58.2031 291.859 58.625 292.234 59.1562C292.609 59.6562 292.891 60.25 293.078 60.9375C293.266 61.5938 293.359 62.2812 293.359 63C294.234 63 295.172 62.875 296.172 62.625C297.203 62.375 298.234 62.1094 299.266 61.8281C300.297 61.5156 301.312 61.2344 302.312 60.9844C303.312 60.7344 304.234 60.6094 305.078 60.6094C305.797 60.6094 306.375 60.7656 306.812 61.0781C307.25 61.3594 307.469 61.8438 307.469 62.5312C307.469 63.0312 307.312 63.8594 307 65.0156C306.719 66.1719 306.359 67.5156 305.922 69.0469C305.484 70.5781 305 72.25 304.469 74.0625C303.969 75.8438 303.5 77.6562 303.062 79.5C302.625 81.3125 302.25 83.0781 301.938 84.7969C301.656 86.5156 301.516 88.0469 301.516 89.3906C301.516 91.0781 301.703 92.2188 302.078 92.8125C302.453 93.4062 303.125 93.7031 304.094 93.7031C304.5 93.7031 305 93.5312 305.594 93.1875C306.219 92.8125 306.969 92.1094 307.844 91.0781C308.719 90.0156 309.75 88.5156 310.938 86.5781C312.156 84.6094 313.562 82.0312 315.156 78.8438L315.625 77.8594L317.547 79.3125L317.078 80.2969C315.203 84.0469 313.531 87.125 312.062 89.5312C310.594 91.9375 309.234 93.8438 307.984 95.25C306.766 96.6562 305.609 97.6406 304.516 98.2031C303.422 98.7344 302.328 99 301.234 99C299.391 99 297.891 98.2969 296.734 96.8906C295.578 95.4844 295 93.3125 295 90.375C295 88.7812 295.219 87.125 295.656 85.4062C296.094 83.6875 296.641 81.9844 297.297 80.2969C297.953 78.5781 298.688 76.8906 299.5 75.2344C300.312 73.5781 301.078 72.0156 301.797 70.5469C302.547 69.0469 303.219 67.6562 303.812 66.375C304.406 65.0938 304.828 63.9688 305.078 63L304.797 62.7188C304.297 62.7188 303.625 62.9844 302.781 63.5156C301.938 64.0469 300.984 64.6562 299.922 65.3438C298.891 66 297.781 66.625 296.594 67.2188C295.406 67.8125 294.203 68.1719 292.984 68.2969C292.922 68.7344 292.781 69.375 292.562 70.2188C292.375 71.0625 292.109 72 291.766 73.0312C291.422 74.0625 291.031 75.125 290.594 76.2188C290.156 77.3125 289.703 78.3438 289.234 79.3125L288.766 80.2969L286.844 78.8438ZM289.141 60.0469C288.859 60.0469 288.625 60.1406 288.438 60.3281C288.25 60.5156 288.156 60.7344 288.156 60.9844C288.156 61.3594 288.25 61.6875 288.438 61.9688C288.625 62.2188 288.859 62.4375 289.141 62.625C289.422 62.7812 289.703 62.9062 289.984 63C290.297 63.0625 290.562 63.0938 290.781 63.0938C290.781 62.2188 290.641 61.5 290.359 60.9375C290.078 60.3438 289.672 60.0469 289.141 60.0469ZM344.031 87.375C344.031 89.1562 344.188 90.6562 344.5 91.875C344.812 93.0938 345.359 93.7031 346.141 93.7031C346.609 93.7031 347.109 93.4844 347.641 93.0469C348.203 92.5781 348.844 91.8281 349.562 90.7969C350.281 89.7656 351.094 88.4375 352 86.8125C352.938 85.1562 354 83.1406 355.188 80.7656L356.594 77.8594L358.516 79.3125L357.109 82.2188C355.797 84.8438 354.562 87.2031 353.406 89.2969C352.281 91.3594 351.203 93.1094 350.172 94.5469C349.141 95.9844 348.125 97.0938 347.125 97.875C346.156 98.625 345.188 99 344.219 99C343.188 99 342.312 98.7188 341.594 98.1562C340.906 97.5938 340.328 96.8281 339.859 95.8594C339.391 94.8594 339.031 93.7188 338.781 92.4375C338.531 91.125 338.359 89.7344 338.266 88.2656C337.516 89.7656 336.688 91.1719 335.781 92.4844C334.875 93.7656 333.922 94.8906 332.922 95.8594C331.953 96.8281 330.938 97.5938 329.875 98.1562C328.812 98.7188 327.75 99 326.688 99C325.125 99 323.609 98.6719 322.141 98.0156C320.672 97.3594 319.359 96.3594 318.203 95.0156C317.078 93.6719 316.172 91.9844 315.484 89.9531C314.797 87.8906 314.453 85.4688 314.453 82.6875C314.453 79.4375 314.875 76.4688 315.719 73.7812C316.562 71.0625 317.703 68.7344 319.141 66.7969C320.578 64.8281 322.234 63.3125 324.109 62.25C325.984 61.1562 327.953 60.6094 330.016 60.6094C331.266 60.6094 332.422 60.8906 333.484 61.4531C334.547 62.0156 335.469 62.7031 336.25 63.5156C337.062 64.2969 337.734 65.1406 338.266 66.0469C338.797 66.9219 339.156 67.6719 339.344 68.2969L339.906 63.75C339.969 63.1562 340.25 62.6562 340.75 62.25C341.281 61.8438 341.859 61.5312 342.484 61.3125C343.109 61.0625 343.719 60.8906 344.312 60.7969C344.906 60.6719 345.328 60.6094 345.578 60.6094C345.953 60.6094 346.203 60.6719 346.328 60.7969C346.453 60.9219 346.516 61.1719 346.516 61.5469C346.516 62.0156 346.375 62.9688 346.094 64.4062C345.844 65.8125 345.562 67.625 345.25 69.8438C344.969 72.0312 344.688 74.6094 344.406 77.5781C344.156 80.5469 344.031 83.8125 344.031 87.375ZM338.875 75C338.875 73.5625 338.656 72.1562 338.219 70.7812C337.781 69.375 337.188 68.1406 336.438 67.0781C335.688 65.9844 334.812 65.1094 333.812 64.4531C332.844 63.7969 331.812 63.4688 330.719 63.4688C329.375 63.4688 328.109 63.8594 326.922 64.6406C325.766 65.3906 324.75 66.4688 323.875 67.875C323.031 69.25 322.359 70.9219 321.859 72.8906C321.359 74.8281 321.109 76.9688 321.109 79.3125C321.109 84 321.844 87.5781 323.312 90.0469C324.781 92.4844 326.734 93.7031 329.172 93.7031C330.234 93.7031 331.328 93.2812 332.453 92.4375C333.609 91.5625 334.656 90.3281 335.594 88.7344C336.562 87.1094 337.344 85.1406 337.938 82.8281C338.562 80.5156 338.875 77.9062 338.875 75ZM371.875 63.9375C370.969 63.9375 370.094 64.2656 369.25 64.9219C368.438 65.5469 367.656 66.4219 366.906 67.5469C366.156 68.6406 365.422 69.9375 364.703 71.4375C364.016 72.9062 363.328 74.4844 362.641 76.1719V76.7344C362.547 79.4844 362.453 82.4062 362.359 85.5C362.297 88.5938 362.266 91.9688 362.266 95.625C362.266 96.25 362.047 96.7812 361.609 97.2188C361.203 97.625 360.719 97.9688 360.156 98.25C359.594 98.5 359.016 98.6875 358.422 98.8125C357.828 98.9375 357.344 99 356.969 99C356.5 99 356.062 98.8594 355.656 98.5781C355.25 98.2969 355.047 97.6719 355.047 96.7031C355.047 96.2344 355.094 95.6562 355.188 94.9688C355.281 94.25 355.406 93.4844 355.562 92.6719C355.688 91.8594 355.844 91.0312 356.031 90.1875C356.188 89.3125 356.344 88.5 356.5 87.75C356.5 85.0938 356.5 82.7031 356.5 80.5781C356.469 78.4531 356.453 76.5625 356.453 74.9062C356.453 73.25 356.453 71.7969 356.453 70.5469C356.422 69.2969 356.406 68.2188 356.406 67.3125C356.406 65.8125 356.438 64.7188 356.5 64.0312C356.531 63.3125 356.594 62.8125 356.688 62.5312C356.844 62.0938 357.125 61.75 357.531 61.5C357.969 61.25 358.422 61.0625 358.891 60.9375C359.359 60.7812 359.828 60.6875 360.297 60.6562C360.766 60.625 361.125 60.6094 361.375 60.6094C361.969 60.6094 362.359 60.7812 362.547 61.125C362.734 61.4688 362.828 62 362.828 62.7188C362.828 64.3438 362.828 65.8125 362.828 67.125C362.828 68.4375 362.797 69.75 362.734 71.0625C363.328 69.6562 364.016 68.3281 364.797 67.0781C365.609 65.7969 366.5 64.6875 367.469 63.75C368.438 62.7812 369.453 62.0156 370.516 61.4531C371.609 60.8906 372.734 60.6094 373.891 60.6094C375.297 60.6094 376.453 60.9062 377.359 61.5C378.297 62.0625 379.031 62.8594 379.562 63.8906C380.125 64.9219 380.531 66.1406 380.781 67.5469C381.062 68.9219 381.25 70.4219 381.344 72.0469C382.219 70.4531 383.156 68.9688 384.156 67.5938C385.188 66.1875 386.266 64.9688 387.391 63.9375C388.547 62.9062 389.75 62.0938 391 61.5C392.281 60.9062 393.609 60.6094 394.984 60.6094C397.359 60.6094 399.094 61.3594 400.188 62.8594C401.281 64.3281 401.828 66.3281 401.828 68.8594C401.828 70.4531 401.703 72.2344 401.453 74.2031C401.203 76.1719 400.938 78.1719 400.656 80.2031C400.375 82.2031 400.109 84.1719 399.859 86.1094C399.609 88.0469 399.484 89.8125 399.484 91.4062C399.484 93.3438 399.969 94.3125 400.938 94.3125C401.438 94.3125 401.984 94.0156 402.578 93.4219C403.172 92.7969 403.844 91.8594 404.594 90.6094C405.375 89.3281 406.266 87.7188 407.266 85.7812C408.297 83.8438 409.484 81.5312 410.828 78.8438L411.297 77.8594L413.219 79.3125L412.75 80.2969C410.906 83.9844 409.328 87.0312 408.016 89.4375C406.734 91.8438 405.578 93.7656 404.547 95.2031C403.516 96.6094 402.531 97.5938 401.594 98.1562C400.688 98.7188 399.672 99 398.547 99C397.891 99 397.25 98.9062 396.625 98.7188C396 98.5312 395.453 98.2031 394.984 97.7344C394.516 97.2656 394.141 96.6406 393.859 95.8594C393.578 95.0469 393.438 94.0156 393.438 92.7656C393.438 90.8906 393.562 88.7812 393.812 86.4375C394.062 84.0938 394.344 81.75 394.656 79.4062C394.969 77.0625 395.25 74.8594 395.5 72.7969C395.75 70.7031 395.875 69 395.875 67.6875C395.875 66.5312 395.625 65.6094 395.125 64.9219C394.625 64.2031 393.875 63.8438 392.875 63.8438C391.875 63.8438 390.828 64.2344 389.734 65.0156C388.672 65.7969 387.625 66.8125 386.594 68.0625C385.594 69.2812 384.641 70.6562 383.734 72.1875C382.859 73.7188 382.094 75.2344 381.438 76.7344C381.438 80.0156 381.406 82.8906 381.344 85.3594C381.281 87.7969 381.188 89.8594 381.062 91.5469C380.969 93.2344 380.828 94.5781 380.641 95.5781C380.453 96.5469 380.25 97.2031 380.031 97.5469C379.875 97.7656 379.609 97.9688 379.234 98.1562C378.859 98.3438 378.438 98.5 377.969 98.625C377.531 98.75 377.094 98.8438 376.656 98.9062C376.25 98.9688 375.938 99 375.719 99C375.219 99 374.781 98.8594 374.406 98.5781C374.062 98.2656 373.891 97.6719 373.891 96.7969C373.891 96.3906 373.922 95.8438 373.984 95.1562C374.078 94.4688 374.188 93.7031 374.312 92.8594C374.438 92.0156 374.578 91.1094 374.734 90.1406C374.891 89.1719 375.047 88.1875 375.203 87.1875C375.234 86.25 375.266 85.2031 375.297 84.0469C375.328 82.8906 375.359 81.75 375.391 80.625C375.422 79.4688 375.438 78.375 375.438 77.3438C375.469 76.2812 375.484 75.375 375.484 74.625C375.484 73.0312 375.438 71.5781 375.344 70.2656C375.25 68.9531 375.062 67.8281 374.781 66.8906C374.531 65.9531 374.172 65.2344 373.703 64.7344C373.234 64.2031 372.625 63.9375 371.875 63.9375Z" fill="url(#paint0_linear_5_94)"/>
</g>
<g filter="url(#filter1_d_5_94)">
<path d="M57.1562 20.2969C63.3438 20.2969 68.9375 21.2969 73.9375 23.2969C78.9688 25.2656 83.2656 28.0156 86.8281 31.5469C90.3906 35.0781 93.1406 39.2812 95.0781 44.1562C97.0156 49.0312 97.9844 54.3594 97.9844 60.1406C97.9844 63.8594 97.625 67.4531 96.9062 70.9219C96.1875 74.3906 95.1562 77.6562 93.8125 80.7188C92.4688 83.7812 90.8125 86.5781 88.8438 89.1094C86.9062 91.6406 84.7031 93.8281 82.2344 95.6719C79.7969 97.4844 77.1094 98.8906 74.1719 99.8906C71.2656 100.891 68.1562 101.391 64.8438 101.391C61.4688 101.391 58.0625 101.078 54.625 100.453C51.1875 99.8281 47.7812 99.1562 44.4062 98.4375C43.25 99.0938 42.0625 99.6562 40.8438 100.125C39.625 100.625 38.4062 101.031 37.1875 101.344C35.9688 101.688 34.7656 101.938 33.5781 102.094C32.4219 102.281 31.3281 102.375 30.2969 102.375C27.1719 102.375 24.7969 102.016 23.1719 101.297C21.5156 100.578 20.6875 99.5 20.6875 98.0625C20.6875 97.2188 20.9219 96.4688 21.3906 95.8125C21.8281 95.1562 22.5781 94.6094 23.6406 94.1719C24.7031 93.7031 26.0938 93.3594 27.8125 93.1406C29.5 92.8906 31.6094 92.7656 34.1406 92.7656C36.1094 92.7656 38.0469 92.875 39.9531 93.0938C41.8594 93.2812 43.75 93.5156 45.625 93.7969L46.8906 92.4844C47.5469 91.7031 48.0469 90.7188 48.3906 89.5312C48.7344 88.3125 48.9844 86.75 49.1406 84.8438C49.2969 82.9375 49.3906 80.6094 49.4219 77.8594C49.4531 75.0781 49.4688 71.7188 49.4688 67.7812C49.4688 63.9688 49.4844 60.7188 49.5156 58.0312C49.5781 55.3125 49.7031 52.9844 49.8906 51.0469C50.0781 49.1094 50.3594 47.4688 50.7344 46.125C51.1094 44.75 51.6094 43.5 52.2344 42.375C52.8906 41.2188 53.7031 40.0938 54.6719 39C55.6406 37.875 56.7969 36.5938 58.1406 35.1562L60.5312 37.2656C59.8438 37.9219 59.2969 38.7344 58.8906 39.7031C58.5156 40.6406 58.2344 41.7656 58.0469 43.0781C57.8594 44.3594 57.7344 45.8281 57.6719 47.4844C57.6406 49.1094 57.625 50.9531 57.625 53.0156V79.4062C57.625 81.4375 57.4062 83.2188 56.9688 84.75C56.5312 86.25 55.9375 87.5938 55.1875 88.7812C54.4688 89.9688 53.6406 91.0312 52.7031 91.9688C51.7656 92.9062 50.7969 93.7812 49.7969 94.5938C51.6406 94.9688 53.4375 95.3438 55.1875 95.7188C56.9375 96.0938 58.625 96.4375 60.25 96.75C61.9062 97.0625 63.4844 97.3281 64.9844 97.5469C66.5156 97.7344 67.9688 97.8281 69.3438 97.8281C71.9062 97.8281 74.1875 97.2656 76.1875 96.1406C78.1875 95.0156 79.9219 93.4844 81.3906 91.5469C82.8594 89.5781 84.0938 87.2812 85.0938 84.6562C86.125 82 86.9531 79.1562 87.5781 76.125C88.2031 73.0938 88.6406 69.9219 88.8906 66.6094C89.1719 63.2969 89.3125 60.0156 89.3125 56.7656C89.3125 51.6094 88.6562 46.9844 87.3438 42.8906C86.0312 38.7969 84.0781 35.3281 81.4844 32.4844C78.9219 29.6094 75.7188 27.4219 71.875 25.9219C68.0625 24.3906 63.6406 23.625 58.6094 23.625C54.9844 23.625 51.8281 23.9219 49.1406 24.5156C46.4531 25.0781 44.1406 25.8437 42.2031 26.8125C40.2969 27.75 38.7344 28.8281 37.5156 30.0469C36.2969 31.2656 35.3281 32.5312 34.6094 33.8438C33.9219 35.125 33.4375 36.4062 33.1562 37.6875C32.9062 38.9688 32.7812 40.1406 32.7812 41.2031C32.7812 42.4531 32.875 43.6875 33.0625 44.9062C33.2812 46.0938 33.6875 47.1562 34.2812 48.0938C34.9062 49.0312 35.7812 49.7812 36.9062 50.3438C38.0312 50.9062 39.5312 51.1875 41.4062 51.1875C42.0312 51.1875 42.5469 51.1562 42.9531 51.0938C43.3594 51 43.7031 50.8906 43.9844 50.7656C44.2969 50.6406 44.5625 50.5 44.7812 50.3438L45.3438 53.1094C44.875 53.4531 44.0781 53.75 42.9531 54C41.8594 54.25 40.6719 54.375 39.3906 54.375C37.5156 54.375 35.7656 54.0469 34.1406 53.3906C32.5469 52.7344 31.1562 51.8438 29.9688 50.7188C28.7812 49.5625 27.8594 48.2344 27.2031 46.7344C26.5156 45.2344 26.1719 43.6406 26.1719 41.9531C26.1719 39.0469 26.9375 36.2969 28.4688 33.7031C30 31.0781 32.1406 28.7812 34.8906 26.8125C37.6406 24.8125 40.9062 23.2344 44.6875 22.0781C48.5 20.8906 52.6562 20.2969 57.1562 20.2969ZM28.375 96.1406C27.875 96.1406 27.3438 96.1562 26.7812 96.1875C26.2188 96.2188 25.7031 96.2969 25.2344 96.4219C24.7344 96.5469 24.3281 96.7344 24.0156 96.9844C23.7031 97.2344 23.5469 97.5938 23.5469 98.0625C23.5469 98.6875 24.0625 99.1562 25.0938 99.4688C26.125 99.7812 27.8594 99.9375 30.2969 99.9375C32.1719 99.9375 33.9531 99.7344 35.6406 99.3281C37.3594 98.9219 38.9688 98.3281 40.4688 97.5469C38.4062 97.1719 36.3594 96.8438 34.3281 96.5625C32.2969 96.2812 30.3125 96.1406 28.375 96.1406ZM123.062 88.8281C122.906 89.0781 122.672 89.5156 122.359 90.1406C122.078 90.7344 121.703 91.4062 121.234 92.1562C120.797 92.9062 120.266 93.6875 119.641 94.5C119.047 95.3125 118.359 96.0469 117.578 96.7031C116.797 97.3594 115.922 97.9062 114.953 98.3438C114.016 98.7812 112.969 99 111.812 99C110.906 99 109.969 98.8125 109 98.4375C108.031 98.0625 107.125 97.375 106.281 96.375C105.469 95.375 104.797 94.0156 104.266 92.2969C103.734 90.5469 103.469 88.2969 103.469 85.5469C103.469 82.9219 103.562 80.2969 103.75 77.6719C103.938 75.0156 104.156 72.5938 104.406 70.4062C104.688 68.2188 104.953 66.3906 105.203 64.9219C105.453 63.4531 105.641 62.5625 105.766 62.25C105.891 61.9688 106.141 61.7188 106.516 61.5C106.891 61.2812 107.312 61.1094 107.781 60.9844C108.281 60.8594 108.781 60.7656 109.281 60.7031C109.812 60.6406 110.266 60.6094 110.641 60.6094C111.141 60.6094 111.531 60.7344 111.812 60.9844C112.125 61.2344 112.281 61.6562 112.281 62.25C112.281 62.5312 112.219 63.0938 112.094 63.9375C112 64.75 111.875 65.75 111.719 66.9375C111.562 68.125 111.391 69.4375 111.203 70.875C111.047 72.3125 110.891 73.7812 110.734 75.2812C110.578 76.75 110.438 78.2188 110.312 79.6875C110.219 81.125 110.172 82.4375 110.172 83.625C110.172 87.0312 110.531 89.5625 111.25 91.2188C112 92.875 113.219 93.7031 114.906 93.7031C116.344 93.7031 117.797 92.6562 119.266 90.5625C120.766 88.4688 122.062 85.4219 123.156 81.4219C123.312 79.7344 123.453 77.9375 123.578 76.0312C123.734 74.0938 123.875 72.2656 124 70.5469C124.125 68.7969 124.234 67.2344 124.328 65.8594C124.453 64.4844 124.562 63.5 124.656 62.9062C124.75 62.4688 125 62.1094 125.406 61.8281C125.812 61.5156 126.266 61.2812 126.766 61.125C127.297 60.9375 127.797 60.8125 128.266 60.75C128.766 60.6562 129.141 60.6094 129.391 60.6094C129.922 60.6094 130.281 60.7344 130.469 60.9844C130.688 61.2031 130.797 61.5625 130.797 62.0625C130.797 62.5 130.75 63.3438 130.656 64.5938C130.594 65.8125 130.5 67.25 130.375 68.9062C130.281 70.5312 130.172 72.2812 130.047 74.1562C129.922 76.0312 129.797 77.8438 129.672 79.5938C129.578 81.3125 129.484 82.875 129.391 84.2812C129.328 85.6875 129.297 86.75 129.297 87.4688C129.297 89.5938 129.406 91.2656 129.625 92.4844C129.875 93.7031 130.406 94.3125 131.219 94.3125C131.812 94.3125 132.453 93.9375 133.141 93.1875C133.859 92.4062 134.625 91.3281 135.438 89.9531C136.281 88.5781 137.188 86.9531 138.156 85.0781C139.125 83.1719 140.172 81.0938 141.297 78.8438L141.766 77.8594L143.688 79.3125L143.219 80.2969C141.719 83.2656 140.391 85.9219 139.234 88.2656C138.109 90.5781 137.031 92.5312 136 94.125C134.969 95.7188 133.922 96.9375 132.859 97.7812C131.797 98.5938 130.609 99 129.297 99C128.078 99 127.062 98.7656 126.25 98.2969C125.469 97.8281 124.844 97.1562 124.375 96.2812C123.906 95.4062 123.562 94.3438 123.344 93.0938C123.156 91.8438 123.062 90.4219 123.062 88.8281ZM157.094 63.9375C156.188 63.9375 155.312 64.2656 154.469 64.9219C153.656 65.5469 152.875 66.4219 152.125 67.5469C151.375 68.6406 150.641 69.9375 149.922 71.4375C149.234 72.9062 148.547 74.4844 147.859 76.1719V76.7344C147.766 79.4844 147.672 82.4062 147.578 85.5C147.516 88.5938 147.484 91.9688 147.484 95.625C147.484 96.25 147.266 96.7812 146.828 97.2188C146.422 97.625 145.938 97.9688 145.375 98.25C144.812 98.5 144.234 98.6875 143.641 98.8125C143.047 98.9375 142.562 99 142.188 99C141.719 99 141.281 98.8594 140.875 98.5781C140.469 98.2969 140.266 97.6719 140.266 96.7031C140.266 96.2344 140.312 95.6562 140.406 94.9688C140.5 94.25 140.625 93.4844 140.781 92.6719C140.906 91.8594 141.062 91.0312 141.25 90.1875C141.406 89.3125 141.562 88.5 141.719 87.75C141.719 85.0938 141.719 82.7031 141.719 80.5781C141.688 78.4531 141.672 76.5625 141.672 74.9062C141.672 73.25 141.672 71.7969 141.672 70.5469C141.641 69.2969 141.625 68.2188 141.625 67.3125C141.625 65.8125 141.656 64.7188 141.719 64.0312C141.75 63.3125 141.812 62.8125 141.906 62.5312C142.062 62.0938 142.344 61.75 142.75 61.5C143.188 61.25 143.641 61.0625 144.109 60.9375C144.578 60.7812 145.047 60.6875 145.516 60.6562C145.984 60.625 146.344 60.6094 146.594 60.6094C147.188 60.6094 147.578 60.7812 147.766 61.125C147.953 61.4688 148.047 62 148.047 62.7188C148.047 64.3438 148.047 65.8125 148.047 67.125C148.047 68.4375 148.016 69.75 147.953 71.0625C148.547 69.6562 149.234 68.3281 150.016 67.0781C150.828 65.7969 151.719 64.6875 152.688 63.75C153.656 62.7812 154.672 62.0156 155.734 61.4531C156.828 60.8906 157.953 60.6094 159.109 60.6094C160.516 60.6094 161.672 60.9062 162.578 61.5C163.516 62.0625 164.25 62.8594 164.781 63.8906C165.344 64.9219 165.75 66.1406 166 67.5469C166.281 68.9219 166.469 70.4219 166.562 72.0469C167.438 70.4531 168.375 68.9688 169.375 67.5938C170.406 66.1875 171.484 64.9688 172.609 63.9375C173.766 62.9062 174.969 62.0938 176.219 61.5C177.5 60.9062 178.828 60.6094 180.203 60.6094C182.578 60.6094 184.312 61.3594 185.406 62.8594C186.5 64.3281 187.047 66.3281 187.047 68.8594C187.047 70.4531 186.922 72.2344 186.672 74.2031C186.422 76.1719 186.156 78.1719 185.875 80.2031C185.594 82.2031 185.328 84.1719 185.078 86.1094C184.828 88.0469 184.703 89.8125 184.703 91.4062C184.703 93.3438 185.188 94.3125 186.156 94.3125C186.656 94.3125 187.203 94.0156 187.797 93.4219C188.391 92.7969 189.062 91.8594 189.812 90.6094C190.594 89.3281 191.484 87.7188 192.484 85.7812C193.516 83.8438 194.703 81.5312 196.047 78.8438L196.516 77.8594L198.438 79.3125L197.969 80.2969C196.125 83.9844 194.547 87.0312 193.234 89.4375C191.953 91.8438 190.797 93.7656 189.766 95.2031C188.734 96.6094 187.75 97.5938 186.812 98.1562C185.906 98.7188 184.891 99 183.766 99C183.109 99 182.469 98.9062 181.844 98.7188C181.219 98.5312 180.672 98.2031 180.203 97.7344C179.734 97.2656 179.359 96.6406 179.078 95.8594C178.797 95.0469 178.656 94.0156 178.656 92.7656C178.656 90.8906 178.781 88.7812 179.031 86.4375C179.281 84.0938 179.562 81.75 179.875 79.4062C180.188 77.0625 180.469 74.8594 180.719 72.7969C180.969 70.7031 181.094 69 181.094 67.6875C181.094 66.5312 180.844 65.6094 180.344 64.9219C179.844 64.2031 179.094 63.8438 178.094 63.8438C177.094 63.8438 176.047 64.2344 174.953 65.0156C173.891 65.7969 172.844 66.8125 171.812 68.0625C170.812 69.2812 169.859 70.6562 168.953 72.1875C168.078 73.7188 167.312 75.2344 166.656 76.7344C166.656 80.0156 166.625 82.8906 166.562 85.3594C166.5 87.7969 166.406 89.8594 166.281 91.5469C166.188 93.2344 166.047 94.5781 165.859 95.5781C165.672 96.5469 165.469 97.2031 165.25 97.5469C165.094 97.7656 164.828 97.9688 164.453 98.1562C164.078 98.3438 163.656 98.5 163.188 98.625C162.75 98.75 162.312 98.8438 161.875 98.9062C161.469 98.9688 161.156 99 160.938 99C160.438 99 160 98.8594 159.625 98.5781C159.281 98.2656 159.109 97.6719 159.109 96.7969C159.109 96.3906 159.141 95.8438 159.203 95.1562C159.297 94.4688 159.406 93.7031 159.531 92.8594C159.656 92.0156 159.797 91.1094 159.953 90.1406C160.109 89.1719 160.266 88.1875 160.422 87.1875C160.453 86.25 160.484 85.2031 160.516 84.0469C160.547 82.8906 160.578 81.75 160.609 80.625C160.641 79.4688 160.656 78.375 160.656 77.3438C160.688 76.2812 160.703 75.375 160.703 74.625C160.703 73.0312 160.656 71.5781 160.562 70.2656C160.469 68.9531 160.281 67.8281 160 66.8906C159.75 65.9531 159.391 65.2344 158.922 64.7344C158.453 64.2031 157.844 63.9375 157.094 63.9375ZM202.703 74.0625C202.734 77.6562 202.969 80.8594 203.406 83.6719C203.844 86.4531 204.453 88.8125 205.234 90.75C206.016 92.6562 206.969 94.1094 208.094 95.1094C209.219 96.1094 210.5 96.6094 211.938 96.6094C213.906 96.6094 215.531 95.8281 216.812 94.2656C218.125 92.6719 219.094 90.5 219.719 87.75C218.094 87.4062 216.547 86.7656 215.078 85.8281C213.609 84.8906 212.312 83.7344 211.188 82.3594C210.062 80.9531 209.156 79.3438 208.469 77.5312C207.812 75.7188 207.484 73.75 207.484 71.625C207.484 69.875 207.703 68.3438 208.141 67.0312C208.609 65.6875 209.219 64.5781 209.969 63.7031C210.719 62.7969 211.578 62.125 212.547 61.6875C213.547 61.2188 214.594 60.9844 215.688 60.9844C216.969 60.9844 218.281 61.3594 219.625 62.1094C220.969 62.8281 222.188 63.9219 223.281 65.3906C224.375 66.8281 225.266 68.6406 225.953 70.8281C226.641 73.0156 226.984 75.5625 226.984 78.4688C226.984 79.5625 226.922 80.6406 226.797 81.7031C226.672 82.7656 226.484 83.7969 226.234 84.7969C227.734 84.3594 229.094 83.6562 230.312 82.6875C231.562 81.7188 232.594 80.4375 233.406 78.8438L233.922 77.8594L235.844 79.3125L235.328 80.2969C234.266 82.4219 232.844 84.125 231.062 85.4062C229.312 86.6562 227.406 87.4688 225.344 87.8438C224.781 89.4375 224.047 90.9219 223.141 92.2969C222.266 93.6406 221.25 94.8125 220.094 95.8125C218.969 96.8125 217.688 97.5938 216.25 98.1562C214.844 98.7188 213.312 99 211.656 99C209.312 99 207.156 98.5 205.188 97.5C203.25 96.5 201.562 94.875 200.125 92.625C198.719 90.375 197.609 87.4219 196.797 83.7656C196.016 80.0781 195.625 75.5625 195.625 70.2188C195.625 62.7812 195.969 56.4531 196.656 51.2344C197.344 45.9844 198.25 41.7188 199.375 38.4375C200.5 35.125 201.797 32.7188 203.266 31.2188C204.734 29.6875 206.25 28.9219 207.812 28.9219C208.781 28.9219 209.578 29.3125 210.203 30.0938C210.828 30.8438 211.141 32.2188 211.141 34.2188C211.141 35.7812 211.016 37.5625 210.766 39.5625C210.516 41.5625 210.188 43.7031 209.781 45.9844C209.375 48.2656 208.891 50.6406 208.328 53.1094C207.766 55.5469 207.172 57.9844 206.547 60.4219C205.922 62.8281 205.281 65.2031 204.625 67.5469C203.969 69.8594 203.328 72.0312 202.703 74.0625ZM210.578 71.25C210.578 73.0938 210.828 74.7969 211.328 76.3594C211.859 77.8906 212.562 79.25 213.438 80.4375C214.312 81.5938 215.328 82.5625 216.484 83.3438C217.641 84.125 218.875 84.6719 220.188 84.9844C220.344 84.1094 220.438 83.2031 220.469 82.2656C220.531 81.2969 220.562 80.3125 220.562 79.3125C220.562 77.0938 220.391 75.0938 220.047 73.3125C219.703 71.5 219.25 69.9688 218.688 68.7188C218.125 67.4375 217.469 66.4531 216.719 65.7656C215.969 65.0781 215.203 64.7344 214.422 64.7344C213.359 64.7344 212.453 65.3125 211.703 66.4688C210.953 67.5938 210.578 69.1875 210.578 71.25ZM208.094 35.3438C208.094 34.6875 208.016 34.1719 207.859 33.7969C207.703 33.4219 207.453 33.2344 207.109 33.2344C206.766 33.2344 206.422 33.7188 206.078 34.6875C205.734 35.6562 205.391 36.9688 205.047 38.625C204.734 40.2812 204.438 42.2031 204.156 44.3906C203.906 46.5781 203.672 48.9062 203.453 51.375C203.234 53.8125 203.062 56.3125 202.938 58.875C202.812 61.4375 202.734 63.9062 202.703 66.2812C203.453 63.5312 204.156 60.7188 204.812 57.8438C205.469 54.9375 206.031 52.125 206.5 49.4062C207 46.6875 207.391 44.125 207.672 41.7188C207.953 39.2812 208.094 37.1562 208.094 35.3438ZM288.672 80.2969C288.016 81.5781 287.25 82.7969 286.375 83.9531C285.531 85.0781 284.641 86.125 283.703 87.0938C282.766 88.0312 281.828 88.9062 280.891 89.7188C279.953 90.5 279.094 91.1875 278.312 91.7812V97.1719C278.312 101.266 277.984 104.906 277.328 108.094C276.703 111.281 275.781 113.984 274.562 116.203C273.375 118.422 271.938 120.109 270.25 121.266C268.594 122.422 266.734 123 264.672 123C263.547 123 262.516 122.766 261.578 122.297C260.641 121.859 259.828 121.25 259.141 120.469C258.484 119.688 257.969 118.766 257.594 117.703C257.219 116.672 257.031 115.562 257.031 114.375C257.031 112.094 257.406 109.984 258.156 108.047C258.938 106.141 259.984 104.328 261.297 102.609C262.609 100.922 264.125 99.3125 265.844 97.7812C267.562 96.2188 269.391 94.6719 271.328 93.1406C271.359 91.4219 271.406 89.7188 271.469 88.0312C271.562 86.3438 271.641 84.75 271.703 83.25C271.797 81.75 271.875 80.3906 271.938 79.1719C272.031 77.9531 272.109 76.9531 272.172 76.1719C271.109 78.3281 269.906 80.4531 268.562 82.5469C267.25 84.6094 265.844 86.5781 264.344 88.4531C262.844 90.3281 261.266 92.0625 259.609 93.6562C257.984 95.2188 256.344 96.5781 254.688 97.7344C253.031 98.8906 251.375 99.7812 249.719 100.406C248.094 101.062 246.531 101.391 245.031 101.391C243.344 101.391 241.734 101.047 240.203 100.359C238.703 99.7031 237.375 98.6562 236.219 97.2188C235.094 95.7812 234.203 93.9375 233.547 91.6875C232.859 89.4375 232.516 86.75 232.516 83.625C232.516 80.125 232.906 76.5312 233.688 72.8438C234.469 69.1562 235.547 65.5 236.922 61.875C238.297 58.25 239.938 54.7031 241.844 51.2344C243.75 47.7656 245.828 44.5 248.078 41.4375C250.328 38.3438 252.719 35.5156 255.25 32.9531C257.781 30.3594 260.359 28.125 262.984 26.25C265.609 24.375 268.234 22.9219 270.859 21.8906C273.516 20.8281 276.094 20.2969 278.594 20.2969C281.219 20.2969 283.312 20.9687 284.875 22.3125C286.469 23.625 287.266 25.5 287.266 27.9375C287.266 29.25 286.984 30.5312 286.422 31.7812C285.891 33 285.156 34.1875 284.219 35.3438C283.312 36.4688 282.281 37.5469 281.125 38.5781C279.969 39.5781 278.781 40.5 277.562 41.3438C276.375 42.1875 275.188 42.9375 274 43.5938C272.844 44.25 271.812 44.7969 270.906 45.2344L269.5 43.3125C270.688 42.7188 271.984 41.875 273.391 40.7812C274.797 39.6875 276.109 38.4531 277.328 37.0781C278.547 35.7031 279.562 34.2188 280.375 32.625C281.188 31.0312 281.594 29.4375 281.594 27.8438C281.594 26.5 281.234 25.3906 280.516 24.5156C279.828 23.6094 278.719 23.1562 277.188 23.1562C274.812 23.1562 272.266 23.8906 269.547 25.3594C266.859 26.8281 264.172 28.875 261.484 31.5C258.828 34.125 256.281 37.2656 253.844 40.9219C251.406 44.5469 249.25 48.5312 247.375 52.875C245.5 57.2188 244 61.8281 242.875 66.7031C241.75 71.5781 241.188 76.5781 241.188 81.7031C241.188 83.9531 241.344 85.9688 241.656 87.75C242 89.5312 242.469 91.0469 243.062 92.2969C243.688 93.5156 244.438 94.4688 245.312 95.1562C246.219 95.8125 247.234 96.1406 248.359 96.1406C249.734 96.1406 251.234 95.7188 252.859 94.875C254.484 94.0312 256.109 92.8906 257.734 91.4531C259.391 90.0156 261.016 88.3594 262.609 86.4844C264.203 84.5781 265.672 82.5781 267.016 80.4844C268.359 78.3906 269.531 76.2656 270.531 74.1094C271.531 71.9531 272.266 69.9062 272.734 67.9688C272.922 65.6875 273.109 63.6094 273.297 61.7344C273.484 59.8281 273.656 58.1562 273.812 56.7188C274 55.2812 274.172 54.125 274.328 53.25C274.484 52.3438 274.625 51.75 274.75 51.4688C275 51 275.359 50.5312 275.828 50.0625C276.297 49.5938 276.797 49.1875 277.328 48.8438C277.891 48.4688 278.438 48.1719 278.969 47.9531C279.5 47.7344 279.953 47.625 280.328 47.625C280.828 47.625 281.156 47.8281 281.312 48.2344C281.5 48.6406 281.594 49.0781 281.594 49.5469C281.594 50.9219 281.359 52.75 280.891 55.0312C280.422 57.3125 279.828 59.9688 279.109 63C278.797 64.3125 278.562 66.0469 278.406 68.2031C278.281 70.3281 278.188 72.6094 278.125 75.0469C278.094 77.4531 278.078 79.8906 278.078 82.3594C278.078 84.7969 278.062 86.9844 278.031 88.9219C280.344 87.2344 282.188 85.5 283.562 83.7188C284.969 81.9062 286.031 80.2812 286.75 78.8438L287.266 77.8594L289.188 79.3125L288.672 80.2969ZM271.234 96.6094C269.766 97.7656 268.422 98.9844 267.203 100.266C265.984 101.547 264.938 102.922 264.062 104.391C263.219 105.859 262.547 107.453 262.047 109.172C261.578 110.922 261.344 112.812 261.344 114.844C261.344 116.781 261.656 118.219 262.281 119.156C262.906 120.125 263.703 120.609 264.672 120.609C265.641 120.609 266.516 120.188 267.297 119.344C268.109 118.531 268.797 117.172 269.359 115.266C269.953 113.391 270.406 110.922 270.719 107.859C271.062 104.797 271.234 101.047 271.234 96.6094ZM286.844 78.8438L287.312 77.8594C287.781 76.9219 288.203 75.9531 288.578 74.9531C288.984 73.9531 289.328 73.0156 289.609 72.1406C289.891 71.2344 290.109 70.4375 290.266 69.75C290.422 69.0312 290.531 68.4844 290.594 68.1094C289.781 68.0156 289 67.8125 288.25 67.5C287.5 67.1875 286.844 66.7656 286.281 66.2344C285.719 65.7031 285.281 65.0781 284.969 64.3594C284.625 63.6406 284.453 62.8281 284.453 61.9219C284.453 61.2031 284.578 60.5625 284.828 60C285.078 59.4375 285.422 58.9688 285.859 58.5938C286.266 58.2188 286.734 57.9375 287.266 57.75C287.766 57.5312 288.297 57.4219 288.859 57.4219C289.609 57.4219 290.266 57.5781 290.828 57.8906C291.391 58.2031 291.859 58.625 292.234 59.1562C292.609 59.6562 292.891 60.25 293.078 60.9375C293.266 61.5938 293.359 62.2812 293.359 63C294.234 63 295.172 62.875 296.172 62.625C297.203 62.375 298.234 62.1094 299.266 61.8281C300.297 61.5156 301.312 61.2344 302.312 60.9844C303.312 60.7344 304.234 60.6094 305.078 60.6094C305.797 60.6094 306.375 60.7656 306.812 61.0781C307.25 61.3594 307.469 61.8438 307.469 62.5312C307.469 63.0312 307.312 63.8594 307 65.0156C306.719 66.1719 306.359 67.5156 305.922 69.0469C305.484 70.5781 305 72.25 304.469 74.0625C303.969 75.8438 303.5 77.6562 303.062 79.5C302.625 81.3125 302.25 83.0781 301.938 84.7969C301.656 86.5156 301.516 88.0469 301.516 89.3906C301.516 91.0781 301.703 92.2188 302.078 92.8125C302.453 93.4062 303.125 93.7031 304.094 93.7031C304.5 93.7031 305 93.5312 305.594 93.1875C306.219 92.8125 306.969 92.1094 307.844 91.0781C308.719 90.0156 309.75 88.5156 310.938 86.5781C312.156 84.6094 313.562 82.0312 315.156 78.8438L315.625 77.8594L317.547 79.3125L317.078 80.2969C315.203 84.0469 313.531 87.125 312.062 89.5312C310.594 91.9375 309.234 93.8438 307.984 95.25C306.766 96.6562 305.609 97.6406 304.516 98.2031C303.422 98.7344 302.328 99 301.234 99C299.391 99 297.891 98.2969 296.734 96.8906C295.578 95.4844 295 93.3125 295 90.375C295 88.7812 295.219 87.125 295.656 85.4062C296.094 83.6875 296.641 81.9844 297.297 80.2969C297.953 78.5781 298.688 76.8906 299.5 75.2344C300.312 73.5781 301.078 72.0156 301.797 70.5469C302.547 69.0469 303.219 67.6562 303.812 66.375C304.406 65.0938 304.828 63.9688 305.078 63L304.797 62.7188C304.297 62.7188 303.625 62.9844 302.781 63.5156C301.938 64.0469 300.984 64.6562 299.922 65.3438C298.891 66 297.781 66.625 296.594 67.2188C295.406 67.8125 294.203 68.1719 292.984 68.2969C292.922 68.7344 292.781 69.375 292.562 70.2188C292.375 71.0625 292.109 72 291.766 73.0312C291.422 74.0625 291.031 75.125 290.594 76.2188C290.156 77.3125 289.703 78.3438 289.234 79.3125L288.766 80.2969L286.844 78.8438ZM289.141 60.0469C288.859 60.0469 288.625 60.1406 288.438 60.3281C288.25 60.5156 288.156 60.7344 288.156 60.9844C288.156 61.3594 288.25 61.6875 288.438 61.9688C288.625 62.2188 288.859 62.4375 289.141 62.625C289.422 62.7812 289.703 62.9062 289.984 63C290.297 63.0625 290.562 63.0938 290.781 63.0938C290.781 62.2188 290.641 61.5 290.359 60.9375C290.078 60.3438 289.672 60.0469 289.141 60.0469ZM344.031 87.375C344.031 89.1562 344.188 90.6562 344.5 91.875C344.812 93.0938 345.359 93.7031 346.141 93.7031C346.609 93.7031 347.109 93.4844 347.641 93.0469C348.203 92.5781 348.844 91.8281 349.562 90.7969C350.281 89.7656 351.094 88.4375 352 86.8125C352.938 85.1562 354 83.1406 355.188 80.7656L356.594 77.8594L358.516 79.3125L357.109 82.2188C355.797 84.8438 354.562 87.2031 353.406 89.2969C352.281 91.3594 351.203 93.1094 350.172 94.5469C349.141 95.9844 348.125 97.0938 347.125 97.875C346.156 98.625 345.188 99 344.219 99C343.188 99 342.312 98.7188 341.594 98.1562C340.906 97.5938 340.328 96.8281 339.859 95.8594C339.391 94.8594 339.031 93.7188 338.781 92.4375C338.531 91.125 338.359 89.7344 338.266 88.2656C337.516 89.7656 336.688 91.1719 335.781 92.4844C334.875 93.7656 333.922 94.8906 332.922 95.8594C331.953 96.8281 330.938 97.5938 329.875 98.1562C328.812 98.7188 327.75 99 326.688 99C325.125 99 323.609 98.6719 322.141 98.0156C320.672 97.3594 319.359 96.3594 318.203 95.0156C317.078 93.6719 316.172 91.9844 315.484 89.9531C314.797 87.8906 314.453 85.4688 314.453 82.6875C314.453 79.4375 314.875 76.4688 315.719 73.7812C316.562 71.0625 317.703 68.7344 319.141 66.7969C320.578 64.8281 322.234 63.3125 324.109 62.25C325.984 61.1562 327.953 60.6094 330.016 60.6094C331.266 60.6094 332.422 60.8906 333.484 61.4531C334.547 62.0156 335.469 62.7031 336.25 63.5156C337.062 64.2969 337.734 65.1406 338.266 66.0469C338.797 66.9219 339.156 67.6719 339.344 68.2969L339.906 63.75C339.969 63.1562 340.25 62.6562 340.75 62.25C341.281 61.8438 341.859 61.5312 342.484 61.3125C343.109 61.0625 343.719 60.8906 344.312 60.7969C344.906 60.6719 345.328 60.6094 345.578 60.6094C345.953 60.6094 346.203 60.6719 346.328 60.7969C346.453 60.9219 346.516 61.1719 346.516 61.5469C346.516 62.0156 346.375 62.9688 346.094 64.4062C345.844 65.8125 345.562 67.625 345.25 69.8438C344.969 72.0312 344.688 74.6094 344.406 77.5781C344.156 80.5469 344.031 83.8125 344.031 87.375ZM338.875 75C338.875 73.5625 338.656 72.1562 338.219 70.7812C337.781 69.375 337.188 68.1406 336.438 67.0781C335.688 65.9844 334.812 65.1094 333.812 64.4531C332.844 63.7969 331.812 63.4688 330.719 63.4688C329.375 63.4688 328.109 63.8594 326.922 64.6406C325.766 65.3906 324.75 66.4688 323.875 67.875C323.031 69.25 322.359 70.9219 321.859 72.8906C321.359 74.8281 321.109 76.9688 321.109 79.3125C321.109 84 321.844 87.5781 323.312 90.0469C324.781 92.4844 326.734 93.7031 329.172 93.7031C330.234 93.7031 331.328 93.2812 332.453 92.4375C333.609 91.5625 334.656 90.3281 335.594 88.7344C336.562 87.1094 337.344 85.1406 337.938 82.8281C338.562 80.5156 338.875 77.9062 338.875 75ZM371.875 63.9375C370.969 63.9375 370.094 64.2656 369.25 64.9219C368.438 65.5469 367.656 66.4219 366.906 67.5469C366.156 68.6406 365.422 69.9375 364.703 71.4375C364.016 72.9062 363.328 74.4844 362.641 76.1719V76.7344C362.547 79.4844 362.453 82.4062 362.359 85.5C362.297 88.5938 362.266 91.9688 362.266 95.625C362.266 96.25 362.047 96.7812 361.609 97.2188C361.203 97.625 360.719 97.9688 360.156 98.25C359.594 98.5 359.016 98.6875 358.422 98.8125C357.828 98.9375 357.344 99 356.969 99C356.5 99 356.062 98.8594 355.656 98.5781C355.25 98.2969 355.047 97.6719 355.047 96.7031C355.047 96.2344 355.094 95.6562 355.188 94.9688C355.281 94.25 355.406 93.4844 355.562 92.6719C355.688 91.8594 355.844 91.0312 356.031 90.1875C356.188 89.3125 356.344 88.5 356.5 87.75C356.5 85.0938 356.5 82.7031 356.5 80.5781C356.469 78.4531 356.453 76.5625 356.453 74.9062C356.453 73.25 356.453 71.7969 356.453 70.5469C356.422 69.2969 356.406 68.2188 356.406 67.3125C356.406 65.8125 356.438 64.7188 356.5 64.0312C356.531 63.3125 356.594 62.8125 356.688 62.5312C356.844 62.0938 357.125 61.75 357.531 61.5C357.969 61.25 358.422 61.0625 358.891 60.9375C359.359 60.7812 359.828 60.6875 360.297 60.6562C360.766 60.625 361.125 60.6094 361.375 60.6094C361.969 60.6094 362.359 60.7812 362.547 61.125C362.734 61.4688 362.828 62 362.828 62.7188C362.828 64.3438 362.828 65.8125 362.828 67.125C362.828 68.4375 362.797 69.75 362.734 71.0625C363.328 69.6562 364.016 68.3281 364.797 67.0781C365.609 65.7969 366.5 64.6875 367.469 63.75C368.438 62.7812 369.453 62.0156 370.516 61.4531C371.609 60.8906 372.734 60.6094 373.891 60.6094C375.297 60.6094 376.453 60.9062 377.359 61.5C378.297 62.0625 379.031 62.8594 379.562 63.8906C380.125 64.9219 380.531 66.1406 380.781 67.5469C381.062 68.9219 381.25 70.4219 381.344 72.0469C382.219 70.4531 383.156 68.9688 384.156 67.5938C385.188 66.1875 386.266 64.9688 387.391 63.9375C388.547 62.9062 389.75 62.0938 391 61.5C392.281 60.9062 393.609 60.6094 394.984 60.6094C397.359 60.6094 399.094 61.3594 400.188 62.8594C401.281 64.3281 401.828 66.3281 401.828 68.8594C401.828 70.4531 401.703 72.2344 401.453 74.2031C401.203 76.1719 400.938 78.1719 400.656 80.2031C400.375 82.2031 400.109 84.1719 399.859 86.1094C399.609 88.0469 399.484 89.8125 399.484 91.4062C399.484 93.3438 399.969 94.3125 400.938 94.3125C401.438 94.3125 401.984 94.0156 402.578 93.4219C403.172 92.7969 403.844 91.8594 404.594 90.6094C405.375 89.3281 406.266 87.7188 407.266 85.7812C408.297 83.8438 409.484 81.5312 410.828 78.8438L411.297 77.8594L413.219 79.3125L412.75 80.2969C410.906 83.9844 409.328 87.0312 408.016 89.4375C406.734 91.8438 405.578 93.7656 404.547 95.2031C403.516 96.6094 402.531 97.5938 401.594 98.1562C400.688 98.7188 399.672 99 398.547 99C397.891 99 397.25 98.9062 396.625 98.7188C396 98.5312 395.453 98.2031 394.984 97.7344C394.516 97.2656 394.141 96.6406 393.859 95.8594C393.578 95.0469 393.438 94.0156 393.438 92.7656C393.438 90.8906 393.562 88.7812 393.812 86.4375C394.062 84.0938 394.344 81.75 394.656 79.4062C394.969 77.0625 395.25 74.8594 395.5 72.7969C395.75 70.7031 395.875 69 395.875 67.6875C395.875 66.5312 395.625 65.6094 395.125 64.9219C394.625 64.2031 393.875 63.8438 392.875 63.8438C391.875 63.8438 390.828 64.2344 389.734 65.0156C388.672 65.7969 387.625 66.8125 386.594 68.0625C385.594 69.2812 384.641 70.6562 383.734 72.1875C382.859 73.7188 382.094 75.2344 381.438 76.7344C381.438 80.0156 381.406 82.8906 381.344 85.3594C381.281 87.7969 381.188 89.8594 381.062 91.5469C380.969 93.2344 380.828 94.5781 380.641 95.5781C380.453 96.5469 380.25 97.2031 380.031 97.5469C379.875 97.7656 379.609 97.9688 379.234 98.1562C378.859 98.3438 378.438 98.5 377.969 98.625C377.531 98.75 377.094 98.8438 376.656 98.9062C376.25 98.9688 375.938 99 375.719 99C375.219 99 374.781 98.8594 374.406 98.5781C374.062 98.2656 373.891 97.6719 373.891 96.7969C373.891 96.3906 373.922 95.8438 373.984 95.1562C374.078 94.4688 374.188 93.7031 374.312 92.8594C374.438 92.0156 374.578 91.1094 374.734 90.1406C374.891 89.1719 375.047 88.1875 375.203 87.1875C375.234 86.25 375.266 85.2031 375.297 84.0469C375.328 82.8906 375.359 81.75 375.391 80.625C375.422 79.4688 375.438 78.375 375.438 77.3438C375.469 76.2812 375.484 75.375 375.484 74.625C375.484 73.0312 375.438 71.5781 375.344 70.2656C375.25 68.9531 375.062 67.8281 374.781 66.8906C374.531 65.9531 374.172 65.2344 373.703 64.7344C373.234 64.2031 372.625 63.9375 371.875 63.9375Z" fill="url(#paint1_linear_5_94)"/>
</g>
<defs>
<filter id="filter0_f_5_94" x="0.6875" y="0.296875" width="432.531" height="142.703" filterUnits="userSpaceOnUse" color-interpolation-filters="sRGB">
<feFlood flood-opacity="0" result="BackgroundImageFix"/>
<feBlend mode="normal" in="SourceGraphic" in2="BackgroundImageFix" result="shape"/>
<feGaussianBlur stdDeviation="10" result="effect1_foregroundBlur_5_94"/>
</filter>
<filter id="filter1_d_5_94" x="16.6875" y="20.2969" width="400.531" height="110.703" filterUnits="userSpaceOnUse" color-interpolation-filters="sRGB">
<feFlood flood-opacity="0" result="BackgroundImageFix"/>
<feColorMatrix in="SourceAlpha" type="matrix" values="0 0 0 0 0 0 0 0 0 0 0 0 0 0 0 0 0 0 127 0" result="hardAlpha"/>
<feOffset dy="4"/>
<feGaussianBlur stdDeviation="2"/>
<feColorMatrix type="matrix" values="0 0 0 0 0 0 0 0 0 0 0 0 0 0 0 0 0 0 0.25 0"/>
<feBlend mode="normal" in2="BackgroundImageFix" result="effect1_dropShadow_5_94"/>
<feBlend mode="normal" in="SourceGraphic" in2="effect1_dropShadow_5_94" result="shape"/>
</filter>
<linearGradient id="paint0_linear_5_94" x1="49.5386" y1="61.3608" x2="401.133" y2="61.3608" gradientUnits="userSpaceOnUse">
<stop offset="0.151042" stop-color="#4DD4F7"/>
<stop offset="0.385417" stop-color="#9090FB"/>
<stop offset="0.598958" stop-color="#FF6B81"/>
<stop offset="0.807292" stop-color="#FBDF63"/>
<stop offset="1" stop-color="#D9F0F4"/>
</linearGradient>
<linearGradient id="paint1_linear_5_94" x1="49.5386" y1="61.3608" x2="401.133" y2="61.3608" gradientUnits="userSpaceOnUse">
<stop offset="0.151042" stop-color="#4DD4F7"/>
<stop offset="0.385417" stop-color="#9090FB"/>
<stop offset="0.598958" stop-color="#FF6B81"/>
<stop offset="0.807292" stop-color="#FBDF63"/>
<stop offset="1" stop-color="#D9F0F4"/>
</linearGradient>
</defs>
</svg>
