<svg width="30" height="26" viewBox="0 0 30 26" fill="none" xmlns="http://www.w3.org/2000/svg">
<path d="M0.00264052 13.0034C0.0393541 13.6214 0.449322 14.1415 1.04286 14.319L12.0325 17.6416L12.4363 25.2168C12.4547 25.5166 12.6566 25.7797 12.9442 25.8776C13.0237 25.9082 13.1094 25.9205 13.1889 25.9205C13.4031 25.9205 13.605 25.8348 13.7519 25.6696L17.6374 21.368L23.1444 25.1801C23.3892 25.3514 23.6768 25.4432 23.9766 25.4432C24.668 25.4432 25.2677 24.9537 25.4145 24.2684L29.9854 0.973609C30.0405 0.704376 29.9364 0.422906 29.7284 0.251576C29.5142 0.0741267 29.2266 0.0312941 28.9696 0.135316L0.883766 11.5655C0.314706 11.8225 -0.034073 12.3854 0.00264052 13.0034ZM13.8314 23.3383L13.5805 18.5594L16.3952 20.5052L13.8314 23.3383ZM23.9521 23.9196L13.9293 16.9807L27.9845 3.38447L23.9521 23.9196ZM26.4425 2.78481L12.5464 16.2281L1.56909 12.9116L26.4425 2.78481Z" fill="#ABABAB"/>
</svg>
