<svg width="24" height="24" viewBox="0 0 24 24" fill="none" xmlns="http://www.w3.org/2000/svg">
<g clip-path="url(#clip0_54_366)">
<path d="M19.714 12.0001C19.2406 12.0001 18.8569 12.3838 18.8569 12.8572V21.4285C18.8569 21.9019 18.4731 22.2856 17.9997 22.2856H2.57139C2.098 22.2856 1.71425 21.9019 1.71425 21.4285V4.28587C1.71425 3.81247 2.098 3.42872 2.57139 3.42872H12.857C13.3304 3.42872 13.7141 3.04497 13.7141 2.57158C13.7141 2.09818 13.3304 1.71448 12.857 1.71448H2.57139C1.15125 1.71448 0 2.86573 0 4.28587V21.4285C0 22.8486 1.15125 23.9999 2.57139 23.9999H17.9998C19.4199 23.9999 20.5712 22.8486 20.5712 21.4285V12.8572C20.5712 12.3838 20.1874 12.0001 19.714 12.0001Z" fill="#ABABAB"/>
<path d="M23.0393 0.961356C22.4239 0.345828 21.5891 9.6221e-05 20.7187 0.000196666C19.8478 -0.00231446 19.0122 0.34402 18.3985 0.961908L7.10829 12.2511C7.01462 12.3455 6.94396 12.4602 6.90172 12.5863L5.18747 17.7291C5.03786 18.1782 5.28069 18.6636 5.72983 18.8131C5.81696 18.8421 5.90822 18.857 6.00003 18.8571C6.09203 18.8569 6.18349 18.8421 6.27088 18.8134L11.4137 17.0991C11.54 17.0569 11.6547 16.9859 11.7488 16.8917L23.0389 5.60157C24.3204 4.32029 24.3205 2.24278 23.0393 0.961356ZM21.827 4.3904L10.6842 15.5331L7.35513 16.6448L8.4634 13.32L19.6104 2.17729C20.2232 1.56568 21.2159 1.56669 21.8275 2.1795C22.1196 2.47225 22.2843 2.86856 22.2855 3.28214C22.2866 3.69793 22.1215 4.0969 21.827 4.3904Z" fill="#ABABAB"/>
</g>
<defs>
<clipPath id="clip0_54_366">
<rect width="24" height="24" fill="white"/>
</clipPath>
</defs>
</svg>
